<svg xmlns="http://www.w3.org/2000/svg" viewBox="-10 0 1239 2048"><path fill="currentColor" d="M107 1265q0-67 20-124t56-106.5 86-94T380 853q-67-91-106.5-172T234 512q0-85 25.5-150.5t72.5-110T445 184t148-23q71 0 129 25t98.5 67.5T883 352t22 118q0 53-15.5 96.5t-43 81.5-65.5 72-82 67l-94 80 307 403q35-64 55-140t21-164h167q0 128-36.5 237.5T1012 1401l181 237H972l-83-110q-74 63-163 96.5T539 1658q-99 0-179-29t-136-81-86.5-124.5T107 1265zm432 243q71 0 137-26t123-74L476 977l-28 24q-50 41-81 80t-47.5 73.5-22 63-5.5 47.5q0 51 16 95t47 77 77 52 107 19zM420 510q0 56 25 114.5T515 748l117-93q31-21 51-44t31-46.5 15.5-47.5 4.5-47q0-30-9.5-58.5t-28-50-44.5-35-59-13.5q-43 0-75.5 16t-54 43-32.5 62.5-11 75.5z"/></svg>