<svg xmlns="http://www.w3.org/2000/svg" viewBox="-10 0 1239 2048"><path fill="currentColor" d="M1159 849q-3 80-19 163.5t-48.5 151.5-83.5 111-125 43q-61 0-101.5-32t-57.5-89q-35 56-86.5 88.5T524 1318q-49 0-85-26t-58.5-73-31-112-2.5-143q9-111 37-200.5t72.5-152 103.5-96T690 482q67 0 111 26.5t70 62.5l-44 504q-3 41 2 66.5t14.5 40T867 1201t30 5q37 0 65.5-28.5t47.5-77 29-113.5 11-138q4-127-21-228t-76.5-171T826 343t-171-37q-101 0-184.5 47.5T326 486t-96 203-39 258q-5 136 19 242t77 179.5 135.5 112T617 1519q30 0 61-4.5t61-13 57-20.5 49-27l32 117q-25 19-57 33t-67 23.5-71 14-68 4.5q-147 0-252.5-51.5t-172-144.5-96-221.5T69 947q4-103 25-200.5T151.5 564t88-155.5T355 287t140.5-79T658 180q122 0 217 47.5T1034.5 363t96.5 211.5 28 274.5zM470 964q-5 102 17 159t70 57q49 0 89-27t70-90l39-445q-28-13-58-13-53 0-92.5 25.5t-66.5 72-43.5 113T470 964z"/></svg>