<?xml version="1.0" encoding="UTF-8" standalone="no"?>
<svg xmlns:dc="http://purl.org/dc/elements/1.1/" xmlns:cc="http://creativecommons.org/ns#" xmlns:rdf="http://www.w3.org/1999/02/22-rdf-syntax-ns#" xmlns:svg="http://www.w3.org/2000/svg" xmlns="http://www.w3.org/2000/svg" id="svg4" version="1.1" viewBox="-10 0 1239 2048">
  <metadata id="metadata10">
    <rdf:RDF>
      <cc:Work rdf:about="">
        <dc:format>image/svg+xml</dc:format>
        <dc:type rdf:resource="http://purl.org/dc/dcmitype/StillImage" />
        <dc:title></dc:title>
      </cc:Work>
    </rdf:RDF>
  </metadata>
  <defs id="defs8" />
  <path id="path2-7" d="M -10,1047.9564 V 1920 h 285.25 c 101.333,-0.3996 191.833,-10.4812 271.5,-30.2463 79.667,-19.7646 147,-47.3156 202,-82.6523 55,-35.3368 97,-77.6607 126,-126.9728 29,-49.3116 43.833,-103.9144 44.5,-163.8076 v -64.0856 c -0.667,-59.8932 -15.5,-114.4961 -44.5,-163.8076 -29,-49.3121 -71,-91.637 -126,-126.9738 -55,-35.3368 -122.333,-62.8867 -202,-82.6513 -79.667,-19.7651 -170.167,-30.0475 -271.5,-30.8457 z m 136.25,91.0382 h 149 c 78.667,0.7987 146.667,9.184 204,25.1553 57.333,15.9718 104.667,37.8328 142,65.5831 37.333,27.7502 65.333,60.491 84,98.2234 18.667,37.733 28.333,78.7597 29,123.0807 v 65.2839 c -0.667,44.3209 -10.167,85.447 -28.5,123.3787 -18.333,37.9328 -46.333,70.874 -84,98.824 -37.667,27.9501 -85.167,50.0109 -142.5,66.1815 -57.333,16.1711 -125.333,24.4575 -204,24.8566 h -149 z" />
</svg>
