<svg xmlns="http://www.w3.org/2000/svg" viewBox="-10 0 1239 2048"><path d="M-10 0v133.56h285.25c101.333 1.52 191.833 21.074 271.5 58.663 79.667 37.588 147 89.982 202 157.185s97 147.696 126 241.477c29 93.78 43.833 197.623 44.5 311.527v121.877c-.667 113.904-15.5 217.747-44.5 311.527-29 93.781-71 174.272-126 241.475s-122.333 119.6-202 157.188c-79.667 37.588-170.167 56.762-271.5 57.521H-10v128h1084.125V0zm136.25 306.695v1313.31h149c78.667-.758 146.667-16.516 204-47.27 57.333-30.755 104.833-72.709 142.5-125.864s65.667-115.802 84-187.941c18.333-72.14 27.833-150.352 28.5-234.64V900.132c-.667-84.289-10.333-162.313-29-234.072-18.667-71.76-46.667-134.026-84-186.801-37.333-52.776-84.667-94.35-142-124.725-57.333-30.374-125.333-46.321-204-47.84z"/></svg>