<svg xmlns="http://www.w3.org/2000/svg" viewBox="-10 0 1239 2048"><path d="M-10 133.56V1792h285.25c101.333-.76 191.833-19.933 271.5-57.522 79.667-37.588 147-89.984 202-157.187 55-67.203 97-147.694 126-241.475 29-93.78 43.833-197.623 44.5-311.527V902.412c-.667-113.904-15.5-217.747-44.5-311.527-29-93.781-71-174.274-126-241.477s-122.333-119.597-202-157.185c-79.667-37.589-170.167-57.144-271.5-58.662zm136.25 173.135h149c78.667 1.519 146.667 17.466 204 47.84 57.333 30.375 104.667 71.95 142 124.725 37.333 52.775 65.333 115.041 84 186.8 18.667 71.76 28.333 149.784 29 234.073v124.156c-.667 84.289-10.167 162.502-28.5 234.64-18.333 72.14-46.333 134.787-84 187.942s-85.167 95.11-142.5 125.863c-57.333 30.754-125.333 46.513-204 47.272h-149z"/></svg>