<?xml version="1.0" encoding="UTF-8" standalone="no"?>
<svg xmlns:dc="http://purl.org/dc/elements/1.1/" xmlns:cc="http://creativecommons.org/ns#" xmlns:rdf="http://www.w3.org/1999/02/22-rdf-syntax-ns#" xmlns:svg="http://www.w3.org/2000/svg" xmlns="http://www.w3.org/2000/svg" id="svg4" version="1.1" viewBox="-10 0 1239 2048">
  <metadata id="metadata10">
    <rdf:RDF>
      <cc:Work rdf:about="">
        <dc:format>image/svg+xml</dc:format>
        <dc:type rdf:resource="http://purl.org/dc/dcmitype/StillImage" />
        <dc:title></dc:title>
      </cc:Work>
    </rdf:RDF>
  </metadata>
  <defs id="defs8" />
  <path d="m -10,1024 v 51.3371 c 42.091,-6.8451 88.277,-10.2704 138.563,-10.2704 60,0 114.333,4.8729 163,14.6178 48.666,9.7454 91.666,23.122 129,40.1315 37.333,17.01 69.5,36.9432 96.5,59.8001 27,22.8564 49.333,47.396 67,73.6194 17.666,26.223 30.666,53.5094 39,81.859 8.333,28.349 12.833,56.3448 13.5,83.9855 v 88.2373 c -0.667,27.6407 -5.167,55.5474 -13.5,83.7191 -8.334,28.1727 -21.167,55.37 -38.5,81.5929 -17.334,26.223 -39.5,50.6744 -66.5,73.354 -27,22.68 -59.167,42.524 -96.5,59.534 -37.334,17.0096 -80.167,30.3861 -128.5,40.1315 -48.334,9.7449 -102.5,14.6179 -162.5,14.6179 -51.084,0 -97.936,-3.5355 -140.563,-10.5994 V 1920 h 1239 v -59.7333 h -51.75 V 1086.328 H 1229 V 1024 Z m 718.406,62.328 h 190 v 773.9387 h -190 z m -579.843,66.4449 c -42.667,0 -80.334,4.075 -113,12.2258 A 279.42,130.396 0 0 0 -10,1172.2273 v 581.6207 a 279.269,130.32553 0 0 0 26.563,7.5497 c 32.666,8.1504 70.666,12.2253 114,12.2253 43.333,0 81.5,-4.0749 114.5,-12.2253 33,-8.1503 61.333,-19.0474 85,-32.6904 23.666,-13.643 43.333,-29.4122 59,-47.3074 15.666,-17.8958 28.333,-36.6772 38,-56.3444 9.666,-19.6677 16.333,-39.6014 20,-59.8001 3.666,-20.1987 5.833,-39.5117 6.5,-57.9385 v -89.3009 c -0.667,-18.4268 -3,-37.6516 -7,-57.6735 a 974.719,454.86887 0 0 0 -20.5,-59.5326 c -9.667,-19.6672 -22.5,-38.4487 -38.5,-56.3444 -16,-17.8958 -36,-33.6654 -60,-47.3084 -24,-13.643 -52.334,-24.451 -85,-32.424 -32.667,-7.9734 -70.667,-11.9606 -114,-11.9606 z" id="path2-6" />
</svg>
