<?xml version="1.0" encoding="UTF-8" standalone="no"?>
<svg xmlns:dc="http://purl.org/dc/elements/1.1/" xmlns:cc="http://creativecommons.org/ns#" xmlns:rdf="http://www.w3.org/1999/02/22-rdf-syntax-ns#" xmlns:svg="http://www.w3.org/2000/svg" xmlns="http://www.w3.org/2000/svg" id="svg4" version="1.1" viewBox="-10 0 1239 2048">
  <metadata id="metadata10">
    <rdf:RDF>
      <cc:Work rdf:about="">
        <dc:format>image/svg+xml</dc:format>
        <dc:type rdf:resource="http://purl.org/dc/dcmitype/StillImage" />
        <dc:title></dc:title>
      </cc:Work>
    </rdf:RDF>
  </metadata>
  <defs id="defs8" />
  <path d="m 128.563,1024 c -50.287,0 -96.473,3.8595 -138.563,11.5723 v 109.1721 a 279.42,146.92507 0 0 1 25.563,-8.146 c 32.666,-9.184 70.333,-13.7755 113,-13.7755 43.333,0 81.333,4.4926 114,13.4768 32.666,8.9837 61,21.1617 85,36.5341 24,15.3724 44,33.141 60,53.3052 16,20.1636 28.833,41.3264 38.5,63.4866 a 974.719,512.52829 0 0 1 20.5,67.0791 c 4,22.5598 6.333,44.2216 7,64.9842 v 100.6212 c -0.667,20.7626 -2.834,42.5232 -6.5,65.2828 -3.667,22.7592 -10.334,45.2196 -20,67.3804 -9.667,22.1602 -22.334,43.3224 -38,63.4866 -15.667,20.1637 -35.334,37.9318 -59,53.3041 -23.667,15.3724 -52,27.6509 -85,36.8338 -33,9.184 -71.167,13.7755 -114.5,13.7755 -43.334,0 -81.334,-4.5915 -114,-13.7749 A 279.269,146.84567 0 0 1 -10,1800.0916 v 107.9649 C 32.627,1916.0164 79.479,1920 130.563,1920 c 60,0 114.166,-5.4906 162.5,-16.4708 48.333,-10.9803 91.166,-26.0529 128.5,-45.2186 37.333,-19.1662 69.5,-41.5262 96.5,-67.0806 27,-25.5544 49.166,-53.1054 66.5,-82.6524 17.333,-29.5474 30.166,-60.1923 38.5,-91.9357 8.333,-31.7433 12.833,-63.1869 13.5,-94.3313 v -99.4223 c -0.667,-31.1445 -5.167,-62.6885 -13.5,-94.6322 -8.334,-31.9426 -21.334,-62.6879 -39,-92.2348 -17.667,-29.5475 -40,-57.1979 -67,-82.9516 -27,-25.7542 -59.167,-48.2141 -96.5,-67.3803 -37.334,-19.1657 -80.334,-34.2378 -129,-45.2186 -48.667,-10.9802 -103,-16.4708 -163,-16.4708 z m 579.843,23.9564 V 1920 h 190 v -872.0436 z m 468.844,0 V 1920 H 1229 v -872.0436 z" id="path2-6" />
</svg>
