<?xml version="1.0" encoding="UTF-8" standalone="no"?>
<svg xmlns:dc="http://purl.org/dc/elements/1.1/" xmlns:cc="http://creativecommons.org/ns#" xmlns:rdf="http://www.w3.org/1999/02/22-rdf-syntax-ns#" xmlns:svg="http://www.w3.org/2000/svg" xmlns="http://www.w3.org/2000/svg" id="svg4" version="1.1" viewBox="-10 0 1239 2048">
  <metadata id="metadata10">
    <rdf:RDF>
      <cc:Work rdf:about="">
        <dc:format>image/svg+xml</dc:format>
        <dc:type rdf:resource="http://purl.org/dc/dcmitype/StillImage" />
        <dc:title></dc:title>
      </cc:Work>
    </rdf:RDF>
  </metadata>
  <defs id="defs8" />
  <path id="path2" d="m 1229,110.008 a 354.284,354.284 0 0 0 -23.938,9.316 c -48.333,20.883 -91.166,49.738 -128.5,86.567 -37.333,36.829 -69.5,79.732 -96.5,128.71 -27,48.98 -49.333,101.564 -67,157.756 -17.666,56.193 -30.666,114.475 -39,174.844 -8.333,60.37 -12.833,120.169 -13.5,179.399 v 189.08 c 0.667,59.23 5.334,118.838 14,178.828 8.667,59.99 21.834,118.08 39.5,174.273 17.667,56.193 40.167,108.777 67.5,157.756 27.334,48.979 59.667,91.693 97,128.143 37.334,36.449 80.167,65.113 128.5,85.996 a 353.83,353.83 0 0 0 21.938,8.611 v -205.326 c -21.71,-14.927 -41.198,-32.873 -58.438,-53.873 -24,-29.235 -44,-63.216 -60,-101.943 -16,-38.728 -29,-79.165 -39,-121.31 a 975.178,975.178 0 0 1 -21.5,-128.14 c -4.333,-43.283 -6.833,-84.288 -7.5,-123.015 V 844.32 c 0.667,-38.727 3.167,-79.541 7.5,-122.445 a 1035.536,1035.536 0 0 1 21,-127.572 c 9.667,-42.145 22.5,-82.39 38.5,-120.739 16,-38.347 36,-72.14 60,-101.375 17.504,-21.322 37.324,-39.497 59.438,-54.558 z M 656.719,133.56 312.719,1452.565 -10,204.273 V 913.32 L 233.719,1792 h 161 l 459,-1658.44 z M -10,1781.68 V 1792 h 2.875 z" />
</svg>
