<?xml version="1.0" encoding="UTF-8" standalone="no"?>
<svg xmlns:dc="http://purl.org/dc/elements/1.1/" xmlns:cc="http://creativecommons.org/ns#" xmlns:rdf="http://www.w3.org/1999/02/22-rdf-syntax-ns#" xmlns:svg="http://www.w3.org/2000/svg" xmlns="http://www.w3.org/2000/svg" id="svg4" version="1.1" viewBox="-10 0 1239 2048">
  <metadata id="metadata10">
    <rdf:RDF>
      <cc:Work rdf:about="">
        <dc:format>image/svg+xml</dc:format>
        <dc:type rdf:resource="http://purl.org/dc/dcmitype/StillImage" />
        <dc:title></dc:title>
      </cc:Work>
    </rdf:RDF>
  </metadata>
  <defs id="defs8" />
  <path id="path2" d="m -10,0 v 204.273 l 322.719,1248.293 344,-1319.005 h 197 L 394.719,1792 h -161 L -10,913.32 v 868.36 L -7.125,1792 H -10 v 128 h 1239 v -150.713 a 353.83,353.83 0 0 1 -21.938,-8.611 c -48.333,-20.882 -91.166,-49.547 -128.5,-85.996 -37.333,-36.45 -69.666,-79.164 -97,-128.143 -27.333,-48.979 -49.833,-101.563 -67.5,-157.756 -17.666,-56.192 -30.833,-114.284 -39.5,-174.273 -8.666,-59.99 -13.333,-119.598 -14,-178.828 V 846.6 c 0.667,-59.23 5.167,-119.03 13.5,-179.399 8.334,-60.369 21.334,-118.651 39,-174.844 17.667,-56.192 40,-108.777 67,-157.755 27,-48.979 59.167,-91.882 96.5,-128.711 37.334,-36.83 80.167,-65.684 128.5,-86.567 A 354.284,354.284 0 0 1 1229,110.008 V 0 Z m 1239,317.63 c -22.114,15.062 -41.934,33.237 -59.438,54.56 -24,29.235 -44,63.027 -60,101.374 -16,38.348 -28.833,78.594 -38.5,120.739 a 1035.536,1035.536 0 0 0 -21,127.572 c -4.333,42.904 -6.833,83.718 -7.5,122.445 v 191.36 c 0.667,38.727 3.167,79.732 7.5,123.015 a 975.178,975.178 0 0 0 21.5,128.14 c 10,42.145 23,82.582 39,121.31 16,38.727 36,72.708 60,101.943 17.24,21 36.727,38.946 58.438,53.873 z" />
</svg>
