<?xml version="1.0" encoding="UTF-8" standalone="no"?>
<svg xmlns:dc="http://purl.org/dc/elements/1.1/" xmlns:cc="http://creativecommons.org/ns#" xmlns:rdf="http://www.w3.org/1999/02/22-rdf-syntax-ns#" xmlns:svg="http://www.w3.org/2000/svg" xmlns="http://www.w3.org/2000/svg" id="svg4" version="1.1" viewBox="-10 0 1239 2048">
  <metadata id="metadata10">
    <rdf:RDF>
      <cc:Work rdf:about="">
        <dc:format>image/svg+xml</dc:format>
        <dc:type rdf:resource="http://purl.org/dc/dcmitype/StillImage" />
        <dc:title></dc:title>
      </cc:Work>
    </rdf:RDF>
  </metadata>
  <defs id="defs8" />
  <path id="path2-7" d="m -10,1024 v 62.328 h 285.25 c 101.333,0.7093 191.833,9.8345 271.5,27.3761 79.667,17.541 147,41.9916 202,73.353 55,31.3614 97,68.9248 126,112.6892 29,43.764 43.833,92.2241 44.5,145.3793 v 56.8759 c -0.667,53.1552 -15.5,101.6153 -44.5,145.3793 -29,43.7645 -71,81.3269 -126,112.6883 -55,31.3614 -122.333,55.8134 -202,73.3544 -79.667,17.5411 -170.167,26.489 -271.5,26.8432 H -10 V 1920 h 1084.125 v -896 z m 136.25,143.1243 v 612.878 h 149 c 78.667,-0.3537 146.667,-7.7074 204,-22.0593 57.333,-14.3523 104.833,-33.9309 142.5,-58.7365 37.667,-24.8057 65.667,-54.041 84,-87.7058 18.333,-33.6654 27.833,-70.1643 28.5,-109.4987 v -57.9404 c -0.667,-39.3349 -10.333,-75.7461 -29,-109.2336 -18.667,-33.488 -46.667,-62.5455 -84,-87.1738 -37.333,-24.6288 -84.667,-44.03 -142,-58.205 -57.333,-14.1745 -125.333,-21.6165 -204,-22.3253 z" />
</svg>
