<?xml version="1.0" encoding="UTF-8" standalone="no"?>
<svg xmlns:dc="http://purl.org/dc/elements/1.1/" xmlns:cc="http://creativecommons.org/ns#" xmlns:rdf="http://www.w3.org/1999/02/22-rdf-syntax-ns#" xmlns:svg="http://www.w3.org/2000/svg" xmlns="http://www.w3.org/2000/svg" id="svg4" version="1.1" viewBox="-10 0 1239 2048">
  <metadata id="metadata10">
    <rdf:RDF>
      <cc:Work rdf:about="">
        <dc:format>image/svg+xml</dc:format>
        <dc:type rdf:resource="http://purl.org/dc/dcmitype/StillImage" />
        <dc:title></dc:title>
      </cc:Work>
    </rdf:RDF>
  </metadata>
  <defs id="defs8" />
  <path id="path2" d="M 128.563,88 C 78.276,88 32.09,95.34 -10,110.008 V 317.63 a 279.42,279.42 0 0 1 25.563,-15.492 c 32.666,-17.466 70.333,-26.198 113,-26.198 43.333,0 81.333,8.544 114,25.63 32.666,17.085 61,40.245 85,69.48 24,29.235 44,63.027 60,101.375 16,38.347 28.833,78.594 38.5,120.738 a 974.719,974.719 0 0 1 20.5,127.57 c 4,42.904 6.333,84.1 7,123.586 v 191.36 c -0.667,39.486 -2.834,80.87 -6.5,124.154 -3.667,43.283 -10.334,85.998 -20,128.143 -9.667,42.144 -22.334,82.39 -38,120.738 -15.667,38.347 -35.334,72.138 -59,101.373 -23.667,29.235 -52,52.586 -85,70.05 -33,17.466 -71.167,26.198 -114.5,26.198 -43.334,0 -81.334,-8.732 -114,-26.197 A 279.269,279.269 0 0 1 -10,1563.96 v 205.326 c 42.627,15.138 89.479,22.714 140.563,22.714 60,0 114.166,-10.442 162.5,-31.324 48.333,-20.882 91.166,-49.547 128.5,-85.996 37.333,-36.45 69.5,-78.974 96.5,-127.573 27,-48.599 49.166,-100.995 66.5,-157.187 17.333,-56.193 30.166,-114.473 38.5,-174.842 8.333,-60.369 12.833,-120.168 13.5,-179.398 V 846.6 c -0.667,-59.23 -5.167,-119.22 -13.5,-179.97 -8.334,-60.748 -21.334,-119.219 -39,-175.411 -17.667,-56.193 -40,-108.778 -67,-157.756 -27,-48.979 -59.167,-91.693 -96.5,-128.143 -37.334,-36.449 -80.334,-65.113 -129,-85.996 C 242.896,98.442 188.563,88 128.563,88 Z m 579.843,45.56 V 1792 h 190 V 133.56 Z m 468.844,0 V 1792 H 1229 V 133.56 Z" />
</svg>
