<?xml version="1.0" encoding="UTF-8" standalone="no"?>
<svg xmlns:dc="http://purl.org/dc/elements/1.1/" xmlns:cc="http://creativecommons.org/ns#" xmlns:rdf="http://www.w3.org/1999/02/22-rdf-syntax-ns#" xmlns:svg="http://www.w3.org/2000/svg" xmlns="http://www.w3.org/2000/svg" id="svg4" version="1.1" viewBox="-10 0 1239 2048">
  <metadata id="metadata10">
    <rdf:RDF>
      <cc:Work rdf:about="">
        <dc:format>image/svg+xml</dc:format>
        <dc:type rdf:resource="http://purl.org/dc/dcmitype/StillImage" />
        <dc:title></dc:title>
      </cc:Work>
    </rdf:RDF>
  </metadata>
  <defs id="defs8" />
  <path d="m 1229,1035.5723 a 354.284,186.29018 0 0 0 -23.938,4.8985 c -48.333,10.9808 -91.166,26.1533 -128.5,45.5188 -37.333,19.3655 -69.5,41.9248 -96.5,67.6785 -27,25.7548 -49.333,53.4046 -67,82.9515 -17.666,29.5475 -30.666,60.1935 -39,91.9368 -8.333,31.7438 -12.833,63.1874 -13.5,94.3319 v 99.4223 c 0.667,31.1444 5.334,62.4876 14,94.0316 8.667,31.5441 21.834,62.089 39.5,91.6365 17.667,29.5475 40.167,57.1973 67.5,82.9515 27.334,25.7543 59.667,48.2142 97,67.3804 37.334,19.1657 80.167,34.2378 128.5,45.2186 a 353.83,186.05145 0 0 0 21.938,4.5278 v -107.9648 c -21.71,-7.849 -41.198,-17.2854 -58.438,-28.3276 -24,-15.3724 -44,-33.2404 -60,-53.6039 -16,-20.364 -29,-41.6266 -39,-63.7874 a 975.178,512.76965 0 0 1 -21.5,-67.3788 c -4.333,-22.7591 -6.833,-44.3204 -7.5,-64.6839 v -100.6212 c 0.667,-20.3635 3.167,-41.8244 7.5,-64.3842 a 1035.536,544.50719 0 0 1 21,-67.0802 c 9.667,-22.1607 22.5,-43.3224 38.5,-63.4871 16,-20.1637 36,-37.9328 60,-53.3052 17.504,-11.2116 37.324,-20.7684 59.438,-28.6878 z m -572.281,12.3841 -344,693.5613 L -10,1085.1389 v 372.8322 L 233.719,1920 h 161 l 459,-872.0436 z M -10,1914.5735 V 1920 h 2.875 z" id="path2-3" />
</svg>
