<?xml version="1.0" encoding="UTF-8" standalone="no"?>
<svg xmlns:dc="http://purl.org/dc/elements/1.1/" xmlns:cc="http://creativecommons.org/ns#" xmlns:rdf="http://www.w3.org/1999/02/22-rdf-syntax-ns#" xmlns:svg="http://www.w3.org/2000/svg" xmlns="http://www.w3.org/2000/svg" id="svg4" version="1.1" viewBox="-10 0 1239 2048">
  <metadata id="metadata10">
    <rdf:RDF>
      <cc:Work rdf:about="">
        <dc:format>image/svg+xml</dc:format>
        <dc:type rdf:resource="http://purl.org/dc/dcmitype/StillImage" />
        <dc:title></dc:title>
      </cc:Work>
    </rdf:RDF>
  </metadata>
  <defs id="defs8" />
  <path d="m -10,1024 v 95.3274 l 322.719,582.5367 344,-615.5356 h 197 l -459,773.9382 h -161 L -10,1450.216 v 405.2347 l 2.875,4.816 H -10 V 1920 h 1239 v -70.3327 a 353.83,165.12067 0 0 1 -21.938,-4.0185 c -48.333,-9.7449 -91.166,-23.1219 -128.5,-40.1315 -37.333,-17.01 -69.666,-36.9432 -97,-59.8 -27.333,-22.8569 -49.833,-47.3961 -67.5,-73.6195 -17.666,-26.2229 -30.833,-53.3325 -39.5,-81.3274 -8.666,-27.9953 -13.333,-55.8124 -14,-83.4531 V 1419.08 c 0.667,-27.6407 5.167,-55.5473 13.5,-83.7195 8.334,-28.1722 21.334,-55.3705 39,-81.5939 17.667,-26.2229 40,-50.7626 67,-73.619 27,-22.8569 59.167,-42.8783 96.5,-60.0651 37.334,-17.1874 80.167,-30.6526 128.5,-40.398 A 354.284,165.33253 0 0 1 1229,1075.3371 V 1024 Z m 1239,148.2273 c -22.114,7.029 -41.934,15.5106 -59.438,25.4614 -24,13.643 -44,29.4126 -60,47.3078 -16,17.8958 -28.833,36.6772 -38.5,56.3449 a 1035.536,483.25014 0 0 0 -21,59.5336 c -4.333,20.0219 -6.833,39.0684 -7.5,57.141 v 89.3013 c 0.667,18.0726 3.167,37.2083 7.5,57.407 a 975.178,455.08307 0 0 0 21.5,59.7987 c 10,19.6677 23,38.5383 39,56.6113 16,18.0726 36,33.9304 60,47.5734 17.24,9.8 36.727,18.1748 58.438,25.1408 z" id="path2-3" />
</svg>
