<?xml version="1.0" encoding="UTF-8" standalone="no"?>
<svg xmlns:dc="http://purl.org/dc/elements/1.1/" xmlns:cc="http://creativecommons.org/ns#" xmlns:rdf="http://www.w3.org/1999/02/22-rdf-syntax-ns#" xmlns:svg="http://www.w3.org/2000/svg" xmlns="http://www.w3.org/2000/svg" id="svg4" version="1.1" viewBox="-10 0 1239 2048">
  <metadata id="metadata10">
    <rdf:RDF>
      <cc:Work rdf:about="">
        <dc:format>image/svg+xml</dc:format>
        <dc:type rdf:resource="http://purl.org/dc/dcmitype/StillImage" />
        <dc:title></dc:title>
      </cc:Work>
    </rdf:RDF>
  </metadata>
  <defs id="defs8" />
  <path id="path2" d="M -10,0 V 110.008 C 32.091,95.34 78.277,88 128.563,88 c 60,0 114.333,10.442 163,31.324 48.666,20.883 91.666,49.547 129,85.996 37.333,36.45 69.5,79.164 96.5,128.143 27,48.978 49.333,101.563 67,157.756 17.666,56.192 30.666,114.663 39,175.412 8.333,60.748 12.833,120.739 13.5,179.969 v 189.08 c -0.667,59.23 -5.167,119.03 -13.5,179.398 -8.334,60.37 -21.167,118.65 -38.5,174.842 -17.334,56.192 -39.5,108.588 -66.5,157.187 -27,48.6 -59.167,91.123 -96.5,127.573 -37.334,36.449 -80.167,65.113 -128.5,85.996 -48.334,20.882 -102.5,31.324 -162.5,31.324 -51.084,0 -97.936,-7.576 -140.563,-22.713 V 1920 h 1239 v -128 h -51.75 V 133.56 H 1229 V 0 Z m 718.406,133.56 h 190 V 1792 h -190 z M 128.563,275.942 c -42.667,0 -80.334,8.732 -113,26.198 A 279.42,279.42 0 0 0 -10,317.63 v 1246.33 a 279.269,279.269 0 0 0 26.563,16.178 c 32.666,17.465 70.666,26.197 114,26.197 43.333,0 81.5,-8.732 114.5,-26.197 33,-17.465 61.333,-40.816 85,-70.051 23.666,-29.235 43.333,-63.026 59,-101.373 15.666,-38.348 28.333,-78.594 38,-120.738 9.666,-42.145 16.333,-84.86 20,-128.143 3.666,-43.283 5.833,-84.668 6.5,-124.154 V 844.32 c -0.667,-39.486 -3,-80.682 -7,-123.586 a 974.719,974.719 0 0 0 -20.5,-127.57 c -9.667,-42.144 -22.5,-82.39 -38.5,-120.738 -16,-38.348 -36,-72.14 -60,-101.375 -24,-29.235 -52.334,-52.395 -85,-69.48 -32.667,-17.086 -70.667,-25.63 -114,-25.63 z" />
</svg>
