<?xml version="1.0" encoding="UTF-8" standalone="no"?>
<svg xmlns:dc="http://purl.org/dc/elements/1.1/" xmlns:cc="http://creativecommons.org/ns#" xmlns:rdf="http://www.w3.org/1999/02/22-rdf-syntax-ns#" xmlns:svg="http://www.w3.org/2000/svg" xmlns="http://www.w3.org/2000/svg" id="svg4" version="1.1" viewBox="-10 0 1239 2048">
  <metadata id="metadata10">
    <rdf:RDF>
      <cc:Work rdf:about="">
        <dc:format>image/svg+xml</dc:format>
        <dc:type rdf:resource="http://purl.org/dc/dcmitype/StillImage" />
        <dc:title></dc:title>
      </cc:Work>
    </rdf:RDF>
  </metadata>
  <defs id="defs8" />
  <path id="path2" d="m 836.846,0 v 125.035 a 47.093,47.449 0 0 0 47.088,47.444 h 297.978 A 47.093,47.449 0 0 0 1229,125.035 V 0 h -94.176 V 77.59 H 931.021 V 0 Z M 344.578,195.764 a 47.093,47.449 0 0 0 -45.492,35.2 C 269.266,343.452 218.072,437.581 157.904,498.191 105.756,550.723 49.578,578.125 -10,577.813 v 94.757 c 87.535,-0.183 169.276,-41.588 234.486,-107.277 68.227,-68.728 121.253,-164.024 155.409,-274.64 h 41.859 C 385.882,461.96 320.597,600.43 241.73,692.73 165.016,782.511 78.958,828.355 -10,827.893 v 94.771 c 120.004,-0.06 233.558,-63.23 323.104,-168.027 101.948,-119.313 177.18,-293.031 212.011,-503.63 a 47.093,47.449 0 0 0 -46.447,-55.243 z m 312.572,0 a 47.093,47.449 0 0 0 -46.656,41.04 C 575.15,498.218 482.321,722.762 360.092,872.63 252.08,1005.064 125,1078.38 -10,1077.95 v 94.774 C 157.32,1172.64 312.365,1080.605 432.854,932.872 562.527,773.876 656.564,549.41 697.656,290.652 h 33.172 c -37.14,288.795 -125.63,533.554 -243.346,711.67 -124.783,188.808 -280.439,301.156 -441.85,321.82 A 47.093,47.449 0 0 0 4.479,1371.208 V 1953.11 H -10 V 2048 h 61.566 a 47.093,47.449 0 0 0 47.088,-47.443 v -589.254 c 179.607,-37.367 341.465,-166.114 467.217,-356.389 135.29,-204.705 230.704,-482.186 264.797,-806.71 a 47.093,47.449 0 0 0 -46.826,-52.44 z" />
</svg>
