<?xml version="1.0" encoding="UTF-8" standalone="no"?>
<svg xmlns:dc="http://purl.org/dc/elements/1.1/" xmlns:cc="http://creativecommons.org/ns#" xmlns:rdf="http://www.w3.org/1999/02/22-rdf-syntax-ns#" xmlns:svg="http://www.w3.org/2000/svg" xmlns="http://www.w3.org/2000/svg" id="svg4" version="1.1" viewBox="-10 0 1239 2048">
  <metadata id="metadata10">
    <rdf:RDF>
      <cc:Work rdf:about="">
        <dc:format>image/svg+xml</dc:format>
        <dc:type rdf:resource="http://purl.org/dc/dcmitype/StillImage" />
        <dc:title></dc:title>
      </cc:Work>
    </rdf:RDF>
  </metadata>
  <defs id="defs8" />
  <path id="path2" d="m -10,0 v 125.035 a 47.093,47.449 0 0 0 47.088,47.444 h 344.707 c 22.978,321.837 109.052,609.258 238.576,828.14 128.559,217.25 301.595,369.117 499.975,410.75 v 589.188 A 47.093,47.449 0 0 0 1167.434,2048 H 1229 v -94.889 h -14.479 v -581.98 a 47.093,47.449 0 0 0 -41.044,-47.05 c -5.265,-0.687 -7.577,-0.807 -7.047,-0.73 C 991.595,1297.679 827.157,1164.781 701.26,952.027 575.363,739.274 490.028,449.031 472.885,122.53 A 47.093,47.449 0 0 0 425.861,77.59 H 84.176 V 0 Z m 508.535,0 c 0,292.976 67.217,567.1 182.74,777.826 115.523,210.727 281.743,360.822 480.448,390 a 460.964,460.964 0 0 0 67.277,4.899 v -94.774 a 377.495,377.495 0 0 1 -53.693,-4.021 C 1015.147,1050.411 869.92,925.678 763.713,731.945 657.506,538.212 592.71,278.245 592.71,0 Z m 174.842,0 c 0,240.161 53.255,455.907 142.05,619.44 88.796,163.532 215.14,277.8 363.388,299.57 a 343.887,343.887 0 0 0 50.185,3.654 v -94.771 a 261.042,261.042 0 0 1 -36.605,-2.782 C 1083.848,809.171 977.62,720.451 898.045,573.898 818.469,427.347 767.553,225.915 767.553,0 Z M 796.51,0 c 0,163.404 37.712,318.586 104.488,439.996 66.776,121.41 165.127,211.748 286.693,229.6 A 279.996,279.996 0 0 0 1229,672.57 v -94.758 a 197.75,197.75 0 0 1 -27.725,-2.113 C 1117.893,563.455 1040.802,498.417 983.373,394.002 925.945,289.587 890.687,148.493 890.687,0 Z" />
</svg>
