<?xml version="1.0" encoding="UTF-8" standalone="no"?>
<svg xmlns:dc="http://purl.org/dc/elements/1.1/" xmlns:cc="http://creativecommons.org/ns#" xmlns:rdf="http://www.w3.org/1999/02/22-rdf-syntax-ns#" xmlns:svg="http://www.w3.org/2000/svg" xmlns="http://www.w3.org/2000/svg" id="svg4" version="1.1" viewBox="-10 0 1239 2048">
  <metadata id="metadata10">
    <rdf:RDF>
      <cc:Work rdf:about="">
        <dc:format>image/svg+xml</dc:format>
        <dc:type rdf:resource="http://purl.org/dc/dcmitype/StillImage" />
        <dc:title></dc:title>
      </cc:Work>
    </rdf:RDF>
  </metadata>
  <defs id="defs8" />
  <path id="path2" d="M -10,0 V 94.889 H 4.479 V 676.79 a 47.093,47.449 0 0 0 41.154,47.066 c 161.41,20.664 317.066,133.012 441.85,321.82 117.715,178.116 206.205,422.876 243.345,711.67 H 697.656 C 656.564,1498.588 562.527,1274.122 432.854,1115.126 312.365,967.394 157.32,875.36 -10,875.275 v 94.774 c 135,-0.43 262.08,72.887 370.092,205.322 122.229,149.868 215.058,374.412 250.402,635.824 a 47.093,47.449 0 0 0 46.656,41.041 h 126.692 a 47.093,47.449 0 0 0 46.826,-52.44 C 796.575,1475.272 701.16,1197.79 565.871,993.084 440.119,802.809 278.261,674.064 98.654,636.697 V 47.443 A 47.093,47.449 0 0 0 51.566,0 Z m 0,1125.277 v 94.885 c 1.297,0 2.593,-0.01 3.889,0.012 93.471,1.227 185.815,54.17 265.097,156.299 71.172,91.681 129.575,222.207 162.785,380.875 H 379.895 C 345.739,1646.731 292.713,1551.435 224.486,1482.707 159.276,1417.017 77.536,1375.613 -10,1375.43 v 94.757 c 59.578,-0.312 115.756,27.09 167.904,79.622 60.168,60.61 111.362,154.74 141.182,267.226 a 47.093,47.449 0 0 0 45.492,35.201 h 134.078 a 47.093,47.449 0 0 0 46.448,-55.244 C 492.6,1600.472 424.849,1436.113 333.17,1318.014 241.49,1199.914 123.203,1126.973 -4.887,1125.293 H -4.889 A 348.266,348.266 0 0 0 -10,1125.277 Z m 893.934,750.244 a 47.093,47.449 0 0 0 -47.088,47.444 V 2048 h 94.175 v -77.59 h 203.803 V 2048 H 1229 v -125.035 a 47.093,47.449 0 0 0 -47.088,-47.443 z" />
</svg>
