<?xml version="1.0" encoding="UTF-8" standalone="no"?>
<svg xmlns:dc="http://purl.org/dc/elements/1.1/" xmlns:cc="http://creativecommons.org/ns#" xmlns:rdf="http://www.w3.org/1999/02/22-rdf-syntax-ns#" xmlns:svg="http://www.w3.org/2000/svg" xmlns="http://www.w3.org/2000/svg" id="svg4" version="1.1" viewBox="-10 0 1239 2048">
  <metadata id="metadata10">
    <rdf:RDF>
      <cc:Work rdf:about="">
        <dc:format>image/svg+xml</dc:format>
        <dc:type rdf:resource="http://purl.org/dc/dcmitype/StillImage" />
        <dc:title></dc:title>
      </cc:Work>
    </rdf:RDF>
  </metadata>
  <defs id="defs8" />
  <path id="path2" d="m -10,0 v 128 h 404.133 c 36.38,682.358 360.66,1216.648 762.762,1274.797 2.709,0.392 5.399,0.504 8.105,0.851 V 2048 h 64 v -895.975 a 442.236,442.236 0 0 1 -62.875,-4.564 C 793.083,1093.514 518.625,584.769 518.625,0 Z m 710.375,0 c 0,477.13 216.575,854.139 483.516,892.742 A 319.094,319.094 0 0 0 1229,896.035 V 640.018 a 251.926,251.926 0 0 1 -35.879,-2.604 C 980.075,606.604 828.375,319.294 828.375,0 Z" />
</svg>
