<?xml version="1.0" encoding="UTF-8" standalone="no"?>
<svg xmlns:dc="http://purl.org/dc/elements/1.1/" xmlns:cc="http://creativecommons.org/ns#" xmlns:rdf="http://www.w3.org/1999/02/22-rdf-syntax-ns#" xmlns:svg="http://www.w3.org/2000/svg" xmlns="http://www.w3.org/2000/svg" id="svg4" version="1.1" viewBox="-10 0 1239 2048">
  <metadata id="metadata10">
    <rdf:RDF>
      <cc:Work rdf:about="">
        <dc:format>image/svg+xml</dc:format>
        <dc:type rdf:resource="http://purl.org/dc/dcmitype/StillImage" />
        <dc:title></dc:title>
      </cc:Work>
    </rdf:RDF>
  </metadata>
  <defs id="defs8" />
  <path id="path2" d="m 1167.434,0 a 47.093,47.449 0 0 0 -47.088,47.443 V 636.631 C 921.966,678.264 748.93,830.13 620.37,1047.38 490.846,1266.262 404.772,1553.683 381.794,1875.52 H 37.088 A 47.093,47.449 0 0 0 -10,1922.966 V 2048 h 94.176 v -77.59 H 425.86 a 47.093,47.449 0 0 0 47.024,-44.94 c 17.143,-326.5 102.478,-616.744 228.375,-829.497 125.897,-212.754 290.335,-345.652 465.166,-371.325 -0.534,0.079 1.78,-0.042 7.055,-0.73 a 47.093,47.449 0 0 0 41.037,-47.049 V 94.89 H 1229 V 0 Z m 57.08,875.273 a 461.451,461.451 0 0 0 -62.791,4.9 c -198.705,29.18 -364.925,179.274 -480.448,390 C 565.752,1480.9 498.535,1755.023 498.535,2048 h 94.176 c 0,-278.246 64.795,-538.212 171.002,-731.945 C 869.92,1122.322 1015.147,997.589 1175.307,974.07 A 377.427,377.427 0 0 1 1229,970.05 v -94.774 c -1.496,0 -2.989,-0.016 -4.486,-0.002 z m 2.71,249.999 a 349.628,349.628 0 0 0 -48.41,3.718 c -148.247,21.77 -274.59,136.038 -363.386,299.57 -88.796,163.533 -142.051,379.279 -142.051,619.44 h 94.176 c 0,-225.915 50.916,-427.346 130.492,-573.898 79.575,-146.552 185.803,-235.274 294.352,-251.213 a 255.639,255.639 0 0 1 36.603,-2.727 v -94.885 c -0.592,0 -1.183,-0.01 -1.775,-0.01 z m -1.212,250.158 a 280.198,280.198 0 0 0 -38.32,2.974 c -121.567,17.852 -219.918,108.19 -286.694,229.6 C 834.222,1729.414 796.51,1884.596 796.51,2048 h 94.178 c 0,-148.493 35.257,-289.587 92.685,-394.002 57.429,-104.415 134.52,-169.453 217.902,-181.697 a 197.754,197.754 0 0 1 27.725,-2.113 v -94.758 c -0.996,0 -1.991,-0.01 -2.988,0 z" />
</svg>
