<?xml version="1.0" encoding="UTF-8" standalone="no"?>
<svg xmlns:dc="http://purl.org/dc/elements/1.1/" xmlns:cc="http://creativecommons.org/ns#" xmlns:rdf="http://www.w3.org/1999/02/22-rdf-syntax-ns#" xmlns:svg="http://www.w3.org/2000/svg" xmlns="http://www.w3.org/2000/svg" id="svg4" version="1.1" viewBox="-10 0 1239 2048">
  <metadata id="metadata10">
    <rdf:RDF>
      <cc:Work rdf:about="">
        <dc:format>image/svg+xml</dc:format>
        <dc:type rdf:resource="http://purl.org/dc/dcmitype/StillImage" />
        <dc:title></dc:title>
      </cc:Work>
    </rdf:RDF>
  </metadata>
  <defs id="defs8" />
  <path id="path2" d="m 1165,0 v 644.352 c -2.707,0.348 -5.396,0.46 -8.105,0.851 C 754.794,703.353 430.513,1237.642 394.133,1920 H -10 v 128 h 528.625 c 0,-584.769 274.458,-1093.514 647.5,-1147.46 A 442.28,442.28 0 0 1 1229,895.973 V 0 Z m 62.488,1151.957 c -14.457,0.098 -29,1.19 -43.597,3.3 C 916.95,1193.862 700.375,1570.87 700.375,2048 h 128 c 0,-319.294 151.7,-606.605 364.746,-637.414 a 251.95,251.95 0 0 1 35.879,-2.605 v -256.02 c -0.504,0 -1.007,-0.01 -1.512,0 z" />
</svg>
