<?xml version="1.0" encoding="UTF-8" standalone="no"?>
<svg xmlns:dc="http://purl.org/dc/elements/1.1/" xmlns:cc="http://creativecommons.org/ns#" xmlns:rdf="http://www.w3.org/1999/02/22-rdf-syntax-ns#" xmlns:svg="http://www.w3.org/2000/svg" xmlns="http://www.w3.org/2000/svg" id="svg2" version="1.1" viewBox="-10 0 1239 2048">
  <metadata id="metadata8">
    <rdf:RDF>
      <cc:Work rdf:about="">
        <dc:format>image/svg+xml</dc:format>
        <dc:type rdf:resource="http://purl.org/dc/dcmitype/StillImage" />
        <dc:title></dc:title>
      </cc:Work>
    </rdf:RDF>
  </metadata>
  <defs id="defs6" />
  <path id="text934" d="m 414.5061,0 c -37.50882,0 -73.21499,7.5749 -107.11719,22.7227 -33.18088,14.4264 -62.3943,34.6222 -87.64062,60.5898 -24.525,25.2463 -44.36002,55.1812 -59.50781,89.8047 -14.42647,33.9022 -21.64063,69.9691 -21.64063,108.1992 0,38.9515 7.21416,75.3771 21.64063,109.2793 15.14779,33.1809 34.98281,62.3963 59.50781,87.6426 25.24632,24.525 54.45974,43.9994 87.64062,58.4258 33.9022,14.4265 69.60837,21.6406 107.11719,21.6406 36.7875,0 71.41154,-7.2141 103.8711,-21.6406 33.18088,-14.4264 62.03359,-33.9008 86.55859,-58.4258 24.525,-25.2463 44.00126,-54.8205 58.42773,-88.7227 14.42647,-33.9021 21.63868,-69.969 21.63868,-108.1992 0,-38.2301 -7.21221,-74.297 -21.63868,-108.1992 C 648.93705,138.4937 629.46079,108.5588 604.93579,83.3125 580.41079,57.3449 551.55808,37.1491 518.3772,22.7227 485.91765,7.5749 451.2936,0 414.5061,0 Z m 0,137.4121 c 19.47573,0 37.50917,3.6071 54.09961,10.8203 16.59044,7.2133 31.0168,17.3111 43.2793,30.2949 12.98383,12.9839 22.72098,28.4923 29.21289,46.5254 7.21324,17.3118 10.82031,36.0667 10.82031,56.2637 0,19.4758 -3.60707,37.8699 -10.82031,55.1817 -6.49191,16.5904 -16.22906,31.3775 -29.21289,44.3613 -12.2625,12.2625 -26.68886,21.9997 -43.2793,29.2129 -16.59044,6.492 -34.62388,9.7383 -54.09961,9.7383 -19.47573,0 -37.86987,-3.2463 -55.18164,-9.7383 -17.31176,-7.2132 -32.45954,-16.9504 -45.44336,-29.2129 -12.2625,-12.9838 -22.36036,-27.7709 -30.29492,-44.3613 -7.21323,-17.3118 -10.82031,-35.7059 -10.82031,-55.1817 0,-20.197 3.60708,-38.9519 10.82031,-56.2637 7.93456,-18.0331 18.03242,-33.5415 30.29492,-46.5254 12.98382,-12.9838 28.1316,-23.0816 45.44336,-30.2949 17.31177,-7.2132 35.70591,-10.8203 55.18164,-10.8203 z" />
</svg>
