<svg xmlns="http://www.w3.org/2000/svg" viewBox="-10 0 1239 2048"><path fill="currentColor" d="M856 181v166h-16q-92 0-164.5 19T548 418t-94.5 78.5T388 596t-40 113-18 120q26-31 60-57.5t73.5-46 85-31T644 683q109 0 188 41.5T962 834t75 154 24 175q0 102-28.5 192T947 1512.5 805.5 1619 610 1658q-79 0-144.5-23T348 1572.5t-91-93.5-64.5-116-38.5-129-13-134v-87q0-100 12.5-200.5T196 620t81-172.5T405.5 308 590 215t250-34h16zM614 837q-47 0-91 15t-82 42-67 65-46 84v62q0 96 23 170.5t62 125.5 90 77.5 107 26.5q65 0 115-25t84.5-69 52-105.5T879 1172q0-64-16-124.5T814 940t-83-75-117-28z"/></svg>