<svg xmlns="http://www.w3.org/2000/svg" viewBox="-10 0 1239 2048"><path fill="currentColor" d="M373 1474q99 0 174-17.5t130.5-49.5 92.5-75.5 60.5-96 34.5-111 14-119.5q-24 30-55 56.5t-70 46.5-86.5 31.5T564 1151q-108 0-186.5-42.5T248 997t-75-156-24-175q0-103 28.5-194.5t85-160 141-109T600 162q84 0 151.5 23.5t119 65 88.5 98 60.5 122 34.5 137 11 143.5v67q0 93-9 190.5t-35.5 188.5-74.5 171.5T821 1509t-187 95-261 35h-19v-165h19zm221-476q47 0 91.5-15.5t82-44 67-67T881 786v-60q0-97-22.5-173t-61-128.5-89-80.5T601 316q-65 0-115 26t-84.5 71.5-52.5 108T331 656q0 64 16 125.5T395.5 891t82 77.5T594 998z"/></svg>