<svg xmlns="http://www.w3.org/2000/svg" viewBox="-10 0 1239 2048"><path fill="currentColor" d="M390 821h132q70 0 123.5-19t90-52 55.5-79 19-101q0-127-65-191.5T555 314q-59 0-107.5 17.5t-83 50.5-53.5 79-19 103H106q0-83 32.5-156.5t91.5-128 141.5-86T555 162q98 0 179 26.5T873 267t90 129 32 178q0 42-13 87t-40 87.5-69.5 80T771 891q71 23 118.5 60t76 83 40 97 11.5 101q0 102-35 181t-97 133.5-146.5 83T556 1658q-96 0-180.5-27T229 1552t-98.5-127T94 1254h185q0 57 19.5 104t55.5 80 87.5 51 114.5 18 114-16.5 87-50.5 55.5-84.5T832 1236q0-68-22.5-117.5t-63-82.5-98-49T522 971H390V821z"/></svg>