<svg xmlns="http://www.w3.org/2000/svg" viewBox="-10 0 1239 2048"><path fill="currentColor" d="M1070 562q-1 109-59 194T856 889q56 24 101.5 59.5t78 81.5 50 100 17.5 115q0 99-36.5 176t-99 129.5-146.5 80-180 27.5q-98 0-182.5-27t-147-79.5T213 1422t-36-177q0-61 17-115.5t49-100 77-81.5 101-60q-48-24-87-57.5t-66-75-42-90.5-15-103q0-95 32-169.5T331.5 267t135-78T638 162q92 0 171 27t137 78 91 125.5 33 169.5zm-152 679q0-61-20.5-112t-57.5-87.5-88.5-56.5T639 965q-63 0-114 20t-87 56.5-55.5 87.5-19.5 112q0 63 19.5 112.5T438 1437t87.5 52 115.5 18q61 0 112-18t87.5-52 57-83.5T918 1241zm-34-676q0-55-18.5-101t-51-79.5-77.5-52-99-18.5-98 17.5-76 50.5-49.5 79.5T397 565t17.5 102.5 50 78 77 50T640 813q53 0 98-17.5t77.5-50T866 667t18-102z"/></svg>