<svg xmlns="http://www.w3.org/2000/svg" viewBox="-10 0 1239 2048"><path fill="currentColor" d="M907 1263q1-91-66.5-156T626 994q-93-29-168-67t-128.5-90.5T247 716t-29-157q0-84 25.5-152t72-118.5 113-81.5T576 166V-54h149v220q168 23 261 141.5t94 322.5H896q0-67-16.5-123.5t-48-97T754 346t-105-23q-121 0-183 63t-63 170q0 50 16 89t50.5 71 89 59.5T690 829q94 31 169 69t127 89 79.5 118 27.5 156q0 87-27.5 156T988 1535.5 866.5 1615 708 1654v192H559v-191q-78-8-149.5-36T283 1537.5 195 1403t-33-194h185q0 84 25 139.5t64.5 88.5 89.5 47 101 14q65 0 117-16t88-46.5 55.5-74T907 1263z"/></svg>