<svg xmlns="http://www.w3.org/2000/svg" viewBox="-10 0 1239 2048"><path d="M641 1375c-24 0-45 3.667-63 11s-33 17.5-45 30.5-21.167 28.167-27.5 45.5c-6.333 17.333-9.5 36-9.5 56 0 19.333 3.167 37.5 9.5 54.5s15.5 31.833 27.5 44.5c12 12.667 27 22.5 45 29.5s39 10.5 63 10.5 45.167-3.5 63.5-10.5 33.667-16.833 46-29.5c12.333-12.667 21.667-27.5 28-44.5 6.333-17 9.5-35.167 9.5-54.5 0-20-3.167-38.667-9.5-56s-15.667-32.5-28-45.5-27.667-23.167-46-30.5c-18.333-7.333-39.5-11-63.5-11zm588 2.385c-11.357 1.824-21.863 4.689-31.5 8.615-18 7.333-33 17.5-45 30.5s-21.167 28.167-27.5 45.5c-6.333 17.333-9.5 36-9.5 56 0 19.333 3.167 37.5 9.5 54.5s15.5 31.833 27.5 44.5c12 12.667 27 22.5 45 29.5 9.637 3.748 20.143 6.481 31.5 8.223z"/></svg>