<?xml version="1.0" encoding="UTF-8" standalone="no"?>
<svg xmlns:dc="http://purl.org/dc/elements/1.1/" xmlns:cc="http://creativecommons.org/ns#" xmlns:rdf="http://www.w3.org/1999/02/22-rdf-syntax-ns#" xmlns:svg="http://www.w3.org/2000/svg" xmlns="http://www.w3.org/2000/svg" id="svg4" version="1.1" viewBox="-10 0 1239 2048">
  <metadata id="metadata10">
    <rdf:RDF>
      <cc:Work rdf:about="">
        <dc:format>image/svg+xml</dc:format>
        <dc:type rdf:resource="http://purl.org/dc/dcmitype/StillImage" />
        <dc:title></dc:title>
      </cc:Work>
    </rdf:RDF>
  </metadata>
  <defs id="defs8" />
  <path id="path2" d="M -10,0 V 133.56 H 6.75 V 1792 H -10 v 128 H 1229 V 0 Z m 615.959,88 c 60,0 114.333,10.442 163,31.324 48.667,20.883 91.667,49.547 129,85.996 37.333,36.45 69.5,79.162 96.5,128.14 27,48.98 49.333,101.566 67,157.759 17.667,56.192 30.667,114.663 39,175.412 8.333,60.749 12.833,120.739 13.5,179.969 v 189.08 c -0.667,59.23 -5.167,119.03 -13.5,179.398 -8.333,60.37 -21.167,118.65 -38.5,174.842 -17.333,56.192 -39.5,108.586 -66.5,157.185 -27,48.6 -59.167,91.126 -96.5,127.575 -37.333,36.449 -80.167,65.113 -128.5,85.996 -48.333,20.882 -102.5,31.324 -162.5,31.324 -60,0 -114.167,-10.442 -162.5,-31.324 -48.333,-20.882 -91.167,-49.547 -128.5,-85.996 -37.333,-36.45 -69.667,-79.162 -97,-128.14 -27.333,-48.98 -49.833,-101.566 -67.5,-157.759 -17.667,-56.192 -30.833,-114.282 -39.5,-174.271 -8.667,-59.99 -13.333,-119.6 -14,-178.83 V 846.6 c 0.667,-59.23 5.167,-119.03 13.5,-179.399 8.333,-60.369 21.333,-118.65 39,-174.842 17.667,-56.192 40,-108.779 67,-157.757 27,-48.979 59.167,-91.882 96.5,-128.711 37.333,-36.83 80.167,-65.684 128.5,-86.567 C 491.792,98.442 545.959,88 605.959,88 Z m 0,187.941 c -42.667,0 -80.333,8.732 -113,26.198 -32.667,17.465 -61,40.815 -85,70.05 -24,29.236 -44,63.028 -60,101.375 -16,38.348 -28.833,78.592 -38.5,120.737 a 1035.57,1035.57 0 0 0 -21,127.574 c -4.333,42.904 -6.833,83.718 -7.5,122.445 v 191.36 c 0.667,38.727 3.167,79.732 7.5,123.015 a 975.18,975.18 0 0 0 21.5,128.14 c 10,42.145 23,82.582 39,121.31 16,38.727 36,72.71 60,101.945 24,29.235 52.333,52.584 85,70.049 32.667,17.465 70.667,26.197 114,26.197 43.333,0 81.5,-8.732 114.5,-26.197 33,-17.465 61.333,-40.814 85,-70.05 23.667,-29.234 43.333,-63.027 59,-101.374 15.667,-38.348 28.333,-78.596 38,-120.74 9.667,-42.145 16.333,-84.858 20,-128.141 3.667,-43.283 5.833,-84.668 6.5,-124.154 V 844.32 c -0.667,-39.486 -3,-80.682 -7,-123.586 a 974.723,974.723 0 0 0 -20.5,-127.57 c -9.667,-42.144 -22.5,-82.39 -38.5,-120.738 -16,-38.348 -36,-72.14 -60,-101.375 -24,-29.236 -52.333,-52.395 -85,-69.48 -32.667,-17.086 -70.667,-25.63 -114,-25.63 z" />
</svg>
