<svg xmlns="http://www.w3.org/2000/svg" viewBox="-10 0 1239 2048"><path d="M-10 133.271v173.135h130.375c78.667 1.519 146.667 17.466 204 47.84 57.333 30.374 104.667 71.95 142 124.725 37.333 52.775 65.333 115.041 84 186.8 18.667 71.76 28.333 149.786 29 234.075V1024c-.667 84.289-10.167 162.501-28.5 234.64-18.333 72.14-46.333 134.787-84 187.942s-85.167 95.11-142.5 125.863c-57.333 30.754-125.333 46.512-204 47.272H-10v171.994h130.375c101.333-.76 191.833-19.933 271.5-57.521 79.667-37.589 147-89.985 202-157.188 55-67.203 97-147.696 126-241.477 29-93.78 43.833-197.621 44.5-311.525V902.121c-.667-113.904-15.5-217.745-44.5-311.525-29-93.781-71-174.272-126-241.475s-122.333-119.601-202-157.19c-79.667-37.588-170.167-57.14-271.5-58.66zm0 1786.44v.289h1084.125v-.29z"/></svg>