<svg xmlns="http://www.w3.org/2000/svg" viewBox="-10 0 1239 2048"><path d="M605.959 87.71c-60 0-114.167 10.443-162.5 31.325-48.333 20.883-91.167 49.738-128.5 86.567-37.333 36.828-69.5 79.732-96.5 128.71-27 48.98-49.333 101.566-67 157.758-17.667 56.193-30.667 114.473-39 174.842-8.333 60.37-12.833 120.169-13.5 179.399v189.08c.667 59.23 5.333 118.84 14 178.83 8.667 59.989 21.833 118.079 39.5 174.271 17.667 56.193 40.167 108.78 67.5 157.758 27.333 48.978 59.667 91.692 97 128.14 37.333 36.45 80.167 65.114 128.5 85.997 48.333 20.882 102.5 31.324 162.5 31.324s114.167-10.442 162.5-31.324c48.333-20.883 91.167-49.547 128.5-85.996 37.333-36.45 69.5-78.976 96.5-127.575 27-48.599 49.167-100.993 66.5-157.185 17.333-56.193 30.167-114.473 38.5-174.842 8.333-60.369 12.833-120.168 13.5-179.398V846.31c-.667-59.23-5.167-119.22-13.5-179.97-8.333-60.748-21.333-119.219-39-175.411-17.667-56.193-40-108.78-67-157.758-27-48.979-59.167-91.692-96.5-128.14-37.333-36.45-80.333-65.114-129-85.997-48.667-20.882-103-31.324-163-31.324zM-10 133.272v1658.44H6.75V133.27zm615.959 142.381c43.333 0 81.333 8.544 114 25.63 32.667 17.085 61 40.244 85 69.48 24 29.235 44 63.027 60 101.375 16 38.347 28.833 78.594 38.5 120.738a974.722 974.722 0 0120.5 127.57c4 42.904 6.333 84.1 7 123.586v191.36c-.667 39.486-2.833 80.87-6.5 124.154-3.667 43.283-10.333 85.996-20 128.14-9.667 42.145-22.333 82.393-38 120.74-15.667 38.348-35.333 72.14-59 101.376-23.667 29.235-52 52.583-85 70.049-33 17.465-71.167 26.197-114.5 26.197s-81.333-8.732-114-26.197c-32.667-17.466-61-40.814-85-70.05-24-29.234-44-63.217-60-101.945-16-38.727-29-79.164-39-121.308a975.177 975.177 0 01-21.5-128.14c-4.333-43.284-6.833-84.29-7.5-123.016V844.03c.667-38.727 3.167-79.541 7.5-122.445a1035.57 1035.57 0 0121-127.574c9.667-42.145 22.5-82.389 38.5-120.737 16-38.347 36-72.14 60-101.375s52.333-52.585 85-70.05c32.667-17.466 70.333-26.198 113-26.198zM-10 1919.711v.289h1239v-.29z"/></svg>