<svg xmlns="http://www.w3.org/2000/svg" viewBox="-10 0 1239 2048"><path d="M-10 0v133.56h130.375c101.333 1.52 191.833 21.072 271.5 58.66 79.667 37.589 147 89.987 202 157.19s97 147.694 126 241.475c29 93.78 43.833 197.621 44.5 311.525v121.88c-.667 113.903-15.5 217.744-44.5 311.524-29 93.781-71 174.274-126 241.477s-122.333 119.6-202 157.188c-79.667 37.588-170.167 56.762-271.5 57.521H-10v128h1084.125V0zm0 306.695v1313.31h130.375c78.667-.758 146.667-16.517 204-47.27 57.333-30.755 104.833-72.709 142.5-125.864s65.667-115.802 84-187.941c18.333-72.14 27.833-150.352 28.5-234.64V900.134c-.667-84.289-10.333-162.315-29-234.074-18.667-71.76-46.667-134.026-84-186.801-37.333-52.776-84.667-94.35-142-124.725-57.333-30.374-125.333-46.321-204-47.84z"/></svg>