<svg xmlns="http://www.w3.org/2000/svg" viewBox="-10 0 1239 2048"><path fill="currentColor" d="M885 1638q-11-21-17.5-52.5T858 1520q-28 28-62.5 53t-76 44-88.5 30-100 11q-86 0-155.5-25t-118-67.5-75-101T156 1338q0-89 35.5-156T292 1070.5t156.5-66.5T653 982h202v-85q0-49-18-88t-51-66.5-80.5-42.5T599 685q-55 0-98.5 14T427 736t-46.5 54.5T364 856H178q1-59 30.5-116t85-102.5 135-73.5T609 536q92 0 171 22.5t136.5 68T1007 740t33 159v503q0 54 10 114.5t28 105.5v16H885zm-327-141q54 0 101-14t85.5-37 66.5-52.5 44-61.5v-219H683q-162 0-252 48t-90 151q0 40 13.5 74t40.5 58.5 68 38.5 95 14z"/></svg>