<svg xmlns="http://www.w3.org/2000/svg" viewBox="-10 0 1239 2048"><path fill="currentColor" d="M1117 1200q-13 101-52 185.5t-101.5 145-148 94T625 1658q-90 0-163.5-25.5t-131-70.5-99-106-69-133-41-151-14.5-160V809q1-81 14.5-160t41-151 69-133.5 99-106.5T461 187.5 625 162q109 0 195 33.5t148 95 99.5 147.5 49.5 190H932q-9-66-31-123t-59-100-90.5-67.5T625 313q-66 0-116.5 21.5t-87 58.5-61 86T321 583t-21.5 112.5T293 807v205q0 54 6.5 111.5t21.5 113 39 104.5 61 86.5 87 59 117 21.5q73 0 126.5-23t90.5-64.5 59-98 31-122.5h185z"/></svg>