<svg xmlns="http://www.w3.org/2000/svg" viewBox="-10 0 1239 2048"><path fill="currentColor" d="M936 1270q0-67-30.5-113t-78.5-77.5-105.5-52.5T611 989q-77-25-156.5-60t-145-86-107-120.5T161 559t41.5-168T311 266t152-77.5T634 162q95 0 183 31.5T973 282t109 138 43 181H935q-8-63-31-114.5T843 398t-90.5-57.5T634 320q-53 0-103.5 15t-90 45-63 74T354 556q1 63 32 106.5t78.5 73.5 103 50T672 821q54 17 109 38.5T887 909t95 63 77 79.5 51.5 98T1129 1268q0 98-43.5 171T973 1560.5t-156 73-174 24.5q-97 0-190-30t-166.5-86.5-119.5-138-49-185.5h189q9 68 37 120.5t72 89 101.5 55T643 1501q54 0 106.5-13.5t93.5-42 67-72 26-103.5z"/></svg>