<svg xmlns="http://www.w3.org/2000/svg" viewBox="-10 0 1239 2048"><path fill="currentColor" d="M1121 994q-1 78-13.5 157.5T1069 1305t-66.5 138-96.5 112-128.5 75.5T615 1658t-162.5-27.5T324 1555t-97-112.5-67.5-138.5-39.5-153-14-157V828q1-78 13.5-157.5t39-153.5 67-138.5 96.5-113 128.5-76T613 162t163 27.5T905 265t96.5 112.5 67 138.5 39 154 13.5 158v166zM938 826q-1-52-7-108.5t-20.5-112-38.5-106-60-89-85-61T613 327q-64 0-113 23t-85 61.5-60 89-38.5 106-21 112T288 826v168q1 51 7.5 108t21.5 112.5 39 106.5 60 89.5 85 61.5 114 23 114.5-23 85-61.5 59-89 38-106 20-112.5 6.5-109V826z"/></svg>