<svg xmlns="http://www.w3.org/2000/svg" viewBox="-10 0 1239 2048"><path fill="currentColor" d="M893 1351q0-33-13-59.5t-44-48.5-82-40.5-127-33.5q-93-19-169.5-46t-131-64.5-84.5-88T212 853q0-66 31-123.5T330 629t133.5-68T634 536q100 0 180 26t136 72 86.5 107.5T1067 874H882q0-35-18-68.5T814 746t-77.5-42T634 688q-59 0-103.5 13t-74 35-44.5 51-15 60q0 32 12 57t41.5 45 79 36 125.5 31q100 21 179 48.5t133 66 82.5 89.5 28.5 118q0 72-32.5 131T955 1570t-139 65-177 23q-110 0-196-29.5t-145.5-78-91-112.5-31.5-133h185q4 57 30.5 96t66 63 87.5 34 95 10q117 0 185-43t69-114z"/></svg>