<svg xmlns="http://www.w3.org/2000/svg" viewBox="-10 0 1239 2048"><path fill="currentColor" d="M140 1088q0-121 29.5-222.5T255 691t136-114 181-41q100 0 175.5 35.5T876 674l9-118h168v1059q0 107-33.5 190t-94 141-144.5 88-186 30q-42 0-96-9.5t-109.5-31-107-57.5-88.5-89l96-111q34 41 70 69.5t73 45.5 74 24.5 74 7.5q66 0 119-19t90.5-55.5T848 1748t20-124v-93q-54 62-127.5 94.5T570 1658q-99 0-179-42t-135.5-116-85.5-174.5-30-216.5v-21zm185 21q0 79 16.5 150t52 125 90.5 85.5 132 31.5q48 0 86.5-11.5t69-32.5 54.5-50 42-64V847q-18-34-42-62t-55-48.5-69-32-84-11.5q-78 0-133.5 32t-91 86.5-52 126T325 1088v21z"/></svg>