<svg xmlns="http://www.w3.org/2000/svg" viewBox="-10 0 1239 2048"><path fill="currentColor" d="M1116 1447q-92 108-211 160t-261 51q-90-1-165.5-27.5t-135.5-73T238 1448t-75.5-136.5-46-154T100 995V826q1-81 14.5-161.5T156 510t70-137.5 100.5-110T459 189t166-27q102 0 188 31.5t150 90 103 141 48 184.5H931q-11-63-34-116.5T836.5 401 747 341.5 626 320q-66 0-117 22.5T420 403t-63 88.5T316 598t-23 114-7 112v171q1 55 9.5 113.5T322 1223t46 106 67.5 88 91.5 60.5 118 23.5q38 1 79.5-3t80.5-16 73-32.5 57-53.5l2-327H641V913h472z"/></svg>