<?xml version="1.0" encoding="UTF-8" standalone="no"?>
<svg xmlns:dc="http://purl.org/dc/elements/1.1/" xmlns:cc="http://creativecommons.org/ns#" xmlns:rdf="http://www.w3.org/1999/02/22-rdf-syntax-ns#" xmlns:svg="http://www.w3.org/2000/svg" xmlns="http://www.w3.org/2000/svg" id="svg2" version="1.1" viewBox="-10 0 1239 2048">
  <metadata id="metadata8">
    <rdf:RDF>
      <cc:Work rdf:about="">
        <dc:format>image/svg+xml</dc:format>
        <dc:type rdf:resource="http://purl.org/dc/dcmitype/StillImage" />
        <dc:title></dc:title>
      </cc:Work>
    </rdf:RDF>
  </metadata>
  <defs id="defs6" />
  <path id="path2" d="M 394.33398,182 -10,1434.5742 V 1638 h 119.33398 l 117,-377 h 486 l 115,377 H 1011.334 L 549.33398,182 Z M 1229,342.4082 c -5.4577,7.17853 -10.7381,14.54009 -15.834,22.0918 -27.6667,41 -50.6667,85.5 -69,133.5 -18.3333,48 -32,98.33333 -41,151 -9,52.66667 -13.8333,106 -14.5,160 v 203 c 0.6667,54 5.5,107.3333 14.5,160 9,52.6667 22.6667,103 41,151 18.3333,48 41.3333,92.3333 69,133 5.0961,7.4906 10.3761,14.7971 15.834,21.9258 z M 471.33398,468 l 192,632 h -387 z" />
</svg>
