<?xml version="1.0" encoding="UTF-8" standalone="no"?>
<svg xmlns:dc="http://purl.org/dc/elements/1.1/" xmlns:cc="http://creativecommons.org/ns#" xmlns:rdf="http://www.w3.org/1999/02/22-rdf-syntax-ns#" xmlns:svg="http://www.w3.org/2000/svg" xmlns="http://www.w3.org/2000/svg" id="svg2" version="1.1" viewBox="-10 0 1239 2048">
  <metadata id="metadata8">
    <rdf:RDF>
      <cc:Work rdf:about="">
        <dc:format>image/svg+xml</dc:format>
        <dc:type rdf:resource="http://purl.org/dc/dcmitype/StillImage" />
        <dc:title></dc:title>
      </cc:Work>
    </rdf:RDF>
  </metadata>
  <defs id="defs6" />
  <path id="path2" d="m 367.66602,162 c -60.6667,0 -115.3333,8.5 -164,25.5 -48.6667,17 -92.1667,40.5 -130.500004,70.5 C 41.89325,282.47436 14.173619,310.6128 -10,342.4082 v 1135.5176 c 24.173491,31.5733 51.893483,59.6 83.166016,84.0742 38.333304,30 82.000004,53.5 131.000004,70.5 49,17 103.5,25.5 163.5,25.5 70,0 133.5,-11.1667 190.5,-33.5 57,-22.3333 106.3333,-53.6667 148,-94 41.6667,-40.3333 75.5,-88.6667 101.5,-145 26,-56.3333 43.3333,-118.1667 52,-185.5 h -185 c -6,44 -16.3333,84.8333 -31,122.5 -14.6667,37.6667 -34.3333,70.3333 -59,98 -24.6667,27.6667 -54.8333,49.1667 -90.5,64.5 -35.6667,15.3333 -77.8333,23 -126.5,23 -44.6667,0 -83.6667,-7.1667 -117,-21.5 -33.3333,-14.3333 -62.3333,-34 -87,-59 -24.6667,-25 -45,-53.8333 -61,-86.5 -16.000004,-32.6667 -29.000004,-67.5 -39.000004,-104.5 -10,-37 -17.1667,-74.6667 -21.5,-113 -4.3333,-38.3333 -6.5,-75.5 -6.5,-111.5 V 807 c 0,-36 2.1667,-73.16667 6.5,-111.5 4.3333,-38.33333 11.5,-75.83333 21.5,-112.5 10,-36.66667 23.1667,-71.33333 39.500004,-104 16.3333,-32.66667 36.6667,-61.33333 61,-86 24.3333,-24.66667 53.3333,-44.16667 87,-58.5 33.6667,-14.33333 72.5,-21.5 116.5,-21.5 48.6667,0 90.8333,8.16667 126.5,24.5 35.6667,16.33333 65.8333,38.83333 90.5,67.5 24.6667,28.66667 44.3333,62 59,100 14.6667,38 25,79 31,123 h 185 c -8,-69.33333 -24.5,-132.66667 -49.5,-190 -25,-57.33333 -58.1667,-106.5 -99.5,-147.5 -41.3333,-41 -90.6667,-72.66667 -148,-95 -57.3333,-22.33333 -122.3333,-33.5 -195,-33.5 z M 1082,499 c -24,0 -45,3.66667 -63,11 -18,7.33333 -33,17.5 -45,30.5 -12,13 -21.1667,28.16667 -27.5,45.5 -6.3333,17.33333 -9.5,36 -9.5,56 0,19.33333 3.1667,37.5 9.5,54.5 6.3333,17 15.5,31.83333 27.5,44.5 12,12.66667 27,22.5 45,29.5 18,7 39,10.5 63,10.5 24,0 45.1667,-3.5 63.5,-10.5 18.3333,-7 33.6667,-16.83333 46,-29.5 12.3333,-12.66667 21.6667,-27.5 28,-44.5 6.3333,-17 9.5,-35.16667 9.5,-54.5 0,-20 -3.1667,-38.66667 -9.5,-56 -6.3333,-17.33333 -15.6667,-32.5 -28,-45.5 -12.3333,-13 -27.6667,-23.16667 -46,-30.5 -18.3333,-7.33333 -39.5,-11 -63.5,-11 z m 0,876 c -24,0 -45,3.6667 -63,11 -18,7.3333 -33,17.5 -45,30.5 -12,13 -21.1667,28.1667 -27.5,45.5 -6.3333,17.3333 -9.5,36 -9.5,56 0,19.3333 3.1667,37.5 9.5,54.5 6.3333,17 15.5,31.8333 27.5,44.5 12,12.6667 27,22.5 45,29.5 18,7 39,10.5 63,10.5 24,0 45.1667,-3.5 63.5,-10.5 18.3333,-7 33.6667,-16.8333 46,-29.5 12.3333,-12.6667 21.6667,-27.5 28,-44.5 6.3333,-17 9.5,-35.1667 9.5,-54.5 0,-20 -3.1667,-38.6667 -9.5,-56 -6.3333,-17.3333 -15.6667,-32.5 -28,-45.5 -12.3333,-13 -27.6667,-23.1667 -46,-30.5 -18.3333,-7.3333 -39.5,-11 -63.5,-11 z" />
</svg>
