<svg xmlns="http://www.w3.org/2000/svg" viewBox="-10 0 1239 2048"><path fill="currentColor" d="M44 444q0-57 17.5-108.5t51-90.5 83.5-61.5T311 161q66 0 116.5 22.5t84 61.5 51 90.5T580 444v77q0 57-17.5 108t-51 89.5-83.5 61T313 802t-115.5-22.5-84.5-61T61.5 629 44 521v-77zm138 77q0 31 7 59.5t23 51 40.5 36T313 681q35 0 59.5-13.5t39.5-36 22.5-51T442 521v-77q0-31-7.5-60.5t-23-52-40-36T311 282q-35 0-59.5 13.5t-40 36-22.5 52-7 60.5v77zm463 779q0-57 17.5-108t51.5-90 84-61.5 115-22.5q66 0 116 22.5t84 61.5 51.5 90 17.5 108v78q0 57-17.5 108t-51.5 89.5-83.5 61T915 1659q-66 0-116.5-22.5t-84.5-61-51.5-89.5-17.5-108v-78zm138 78q0 31 7.5 60t23 51.5 40.5 36 61 13.5q35 0 59.5-13.5t39.5-36 22-51.5 7-60v-78q0-31-7-60t-22.5-51.5-40.5-36-60-13.5q-36 0-60.5 13.5t-40 36T790 1240t-7 60v78zm-385 72l-111-62L854 351l111 62z"/></svg>