<svg xmlns="http://www.w3.org/2000/svg" viewBox="-10 0 1239 2048"><path d="M-10 128v1664H95.063v-678.857h291l286 678.857h195l1-13.715-309-710.857c40-19.81 76.666-43.81 110-72 33.333-28.19 62-60.571 86-97.143 24-36.571 42.833-77.333 56.5-122.285 13.666-44.952 20.5-94.477 20.5-148.572 0-83.81-12.834-156.76-38.5-218.856-25.667-62.095-61-113.714-106-154.857s-97.5-72.001-157.5-92.572c-60-20.572-124-31.62-192-33.143zm929.25 0v1664h190V128zM95.062 301.715h243c44.667.762 85.834 7.998 123.5 21.713 37.667 13.714 70.167 34.097 97.5 61.144 27.334 27.048 48.667 60.57 64 100.57 15.334 40 23 86.667 23 140 0 50.286-8 94.667-24 133.143s-37.833 71.048-65.5 97.715c-27.666 26.667-59.833 47.047-96.5 61.143-36.666 14.095-75.666 21.523-117 22.285h-248z"/></svg>