<svg xmlns="http://www.w3.org/2000/svg" viewBox="-10 0 1239 2048"><path d="M-10 0v128h348.063c68 1.524 132 12.571 192 33.143 60 20.571 112.5 51.429 157.5 92.572s80.333 92.762 106 154.857c25.666 62.096 38.5 135.046 38.5 218.856 0 54.095-6.834 103.62-20.5 148.572-13.667 44.952-32.5 85.714-56.5 122.285-24 36.572-52.667 68.952-86 97.143-33.334 28.19-70 52.19-110 72l309 710.857-1 13.715h-195l-286-678.857h-291V1792H-10v128h1239V0zm929.25 128h190v1664h-190zM95.062 301.715v637.713h248c41.334-.762 80.334-8.19 117-22.285 36.667-14.096 68.834-34.476 96.5-61.143 27.667-26.667 49.5-59.239 65.5-97.715 16-38.476 24-82.857 24-133.142 0-53.334-7.666-100-23-140-15.333-40-36.666-73.523-64-100.57-27.333-27.048-59.833-47.431-97.5-61.145-37.666-13.715-78.833-20.951-123.5-21.713z"/></svg>