<svg xmlns="http://www.w3.org/2000/svg" viewBox="-10 0 1239 2048"><path d="M144.875 128v1664h185v-667.428h287c65.333-.762 127.167-12.192 185.5-34.287s109.5-54.095 153.5-96 78.833-93.524 104.5-154.857c25.667-61.334 38.5-132 38.5-212s-12.833-150.856-38.5-212.57c-25.667-61.715-60.5-113.526-104.5-155.43-44-41.905-95.167-73.905-153.5-96-58.333-22.096-120.167-33.904-185.5-35.428zm1005.188 0v1664H1229V128zM329.875 301.715h287c42.667.762 82.167 8.762 118.5 24s67.667 36.952 94 65.142c26.333 28.19 47 62.477 62 102.858 15 40.38 22.5 85.714 22.5 136s-7.5 95.047-22.5 134.285-35.833 72.571-62.5 100c-26.667 27.429-58 48.57-94 63.428-36 14.857-75.333 22.668-118 23.43h-287z"/></svg>