<svg xmlns="http://www.w3.org/2000/svg" viewBox="-10 0 1239 2048"><path d="M-10 0v1920h1239v-128h-78.938V128H1229V0zm154.875 128h472c65.333 1.524 127.167 13.332 185.5 35.428 58.333 22.095 109.5 54.095 153.5 96 44 41.904 78.833 93.715 104.5 155.43 25.667 61.714 38.5 132.57 38.5 212.57s-12.833 150.666-38.5 212c-25.667 61.333-60.5 112.952-104.5 154.857s-95.167 73.905-153.5 96-120.167 33.525-185.5 34.287h-287V1792h-185zm185 173.715v649.142h287c42.667-.761 82-8.572 118-23.43 36-14.856 67.333-35.998 94-63.427 26.667-27.429 47.5-60.762 62.5-100s22.5-84 22.5-134.285c0-50.286-7.5-95.62-22.5-136-15-40.381-35.667-74.667-62-102.858-26.333-28.19-57.667-49.904-94-65.142-36.333-15.238-75.833-23.238-118.5-24z"/></svg>